REM DIRINDEX 1\2,1\3\5,1\3\6,1\4\7,1\4\8
REM DIRNAME cjc139,folder01,folder02,folder03,folder04,folder05,folder06,folder07
TITLE ""
FILE "JE_11.mp3" MP3
  TRACK 01 AUDIO
    TITLE "0:"
    INDEX 01 00:00:00
  TRACK 02 AUDIO
    TITLE "7:cjc139_3343"
    INDEX 01 00:00:19
  TRACK 03 AUDIO
    TITLE "0:"
    INDEX 01 00:02:73
  TRACK 04 AUDIO
    TITLE "8:cjc139_3344"
    INDEX 01 00:05:57
  TRACK 05 AUDIO
    TITLE "0:"
    INDEX 01 00:08:19
  TRACK 06 AUDIO
    TITLE "7:cjc139_3345"
    INDEX 01 00:11:05
  TRACK 07 AUDIO
    TITLE "0:"
    INDEX 01 00:13:65
  TRACK 08 AUDIO
    TITLE "8:cjc139_3346"
    INDEX 01 00:16:49
  TRACK 09 AUDIO
    TITLE "0:"
    INDEX 01 00:19:42
  TRACK 10 AUDIO
    TITLE "7:cjc139_3347"
    INDEX 01 00:22:29
  TRACK 11 AUDIO
    TITLE "0:"
    INDEX 01 00:25:68
  TRACK 12 AUDIO
    TITLE "8:cjc139_3348"
    INDEX 01 00:28:55
  TRACK 13 AUDIO
    TITLE "0:"
    INDEX 01 00:31:69
  TRACK 14 AUDIO
    TITLE "7:cjc139_3349"
    INDEX 01 00:34:53
  TRACK 15 AUDIO
    TITLE "0:"
    INDEX 01 00:37:16
  TRACK 16 AUDIO
    TITLE "8:cjc139_3350"
    INDEX 01 00:39:74
  TRACK 17 AUDIO
    TITLE "0:"
    INDEX 01 00:43:09
  TRACK 18 AUDIO
    TITLE "7:cjc139_3351"
    INDEX 01 00:45:71
  TRACK 19 AUDIO
    TITLE "0:"
    INDEX 01 00:48:18
  TRACK 20 AUDIO
    TITLE "8:cjc139_3352"
    INDEX 01 00:51:03
  TRACK 21 AUDIO
    TITLE "0:"
    INDEX 01 00:53:45
  TRACK 22 AUDIO
    TITLE "7:cjc139_3353"
    INDEX 01 00:56:27
  TRACK 23 AUDIO
    TITLE "0:"
    INDEX 01 00:59:00
  TRACK 24 AUDIO
    TITLE "8:cjc139_3354"
    INDEX 01 01:01:60
  TRACK 25 AUDIO
    TITLE "0:"
    INDEX 01 01:04:72
  TRACK 26 AUDIO
    TITLE "7:cjc139_3355"
    INDEX 01 01:07:57
  TRACK 27 AUDIO
    TITLE "0:"
    INDEX 01 01:10:53
  TRACK 28 AUDIO
    TITLE "8:cjc139_3356"
    INDEX 01 01:13:38
  TRACK 29 AUDIO
    TITLE "0:"
    INDEX 01 01:16:11
  TRACK 30 AUDIO
    TITLE "7:cjc139_3357"
    INDEX 01 01:18:68
  TRACK 31 AUDIO
    TITLE "0:"
    INDEX 01 01:21:25
  TRACK 32 AUDIO
    TITLE "8:cjc139_3358"
    INDEX 01 01:24:08
  TRACK 33 AUDIO
    TITLE "0:"
    INDEX 01 01:26:64
  TRACK 34 AUDIO
    TITLE "7:cjc139_3359"
    INDEX 01 01:29:50
  TRACK 35 AUDIO
    TITLE "0:"
    INDEX 01 01:32:33
  TRACK 36 AUDIO
    TITLE "8:cjc139_3360"
    INDEX 01 01:35:18
  TRACK 37 AUDIO
    TITLE "0:"
    INDEX 01 01:38:38
  TRACK 38 AUDIO
    TITLE "7:cjc139_3361"
    INDEX 01 01:41:22
  TRACK 39 AUDIO
    TITLE "0:"
    INDEX 01 01:43:11
  TRACK 40 AUDIO
    TITLE "8:cjc139_3362"
    INDEX 01 01:45:73
  TRACK 41 AUDIO
    TITLE "0:"
    INDEX 01 01:48:42
  TRACK 42 AUDIO
    TITLE "7:cjc139_3363"
    INDEX 01 01:51:28
  TRACK 43 AUDIO
    TITLE "0:"
    INDEX 01 01:54:41
  TRACK 44 AUDIO
    TITLE "8:cjc139_3364"
    INDEX 01 01:57:21
  TRACK 45 AUDIO
    TITLE "0:"
    INDEX 01 02:00:12
  TRACK 46 AUDIO
    TITLE "7:cjc139_3365"
    INDEX 01 02:02:71
  TRACK 47 AUDIO
    TITLE "0:"
    INDEX 01 02:05:58
  TRACK 48 AUDIO
    TITLE "8:cjc139_3366"
    INDEX 01 02:08:43
  TRACK 49 AUDIO
    TITLE "0:"
    INDEX 01 02:10:51
  TRACK 50 AUDIO
    TITLE "7:cjc139_3367"
    INDEX 01 02:13:34
  TRACK 51 AUDIO
    TITLE "0:"
    INDEX 01 02:16:11
  TRACK 52 AUDIO
    TITLE "8:cjc139_3368"
    INDEX 01 02:18:74
  TRACK 53 AUDIO
    TITLE "0:"
    INDEX 01 02:21:32
  TRACK 54 AUDIO
    TITLE "7:cjc139_3369"
    INDEX 01 02:24:16
  TRACK 55 AUDIO
    TITLE "0:"
    INDEX 01 02:26:58
  TRACK 56 AUDIO
    TITLE "8:cjc139_3370"
    INDEX 01 02:29:45
  TRACK 57 AUDIO
    TITLE "0:"
    INDEX 01 02:32:41
  TRACK 58 AUDIO
    TITLE "7:cjc139_3371"
    INDEX 01 02:35:30
  TRACK 59 AUDIO
    TITLE "0:"
    INDEX 01 02:39:08
  TRACK 60 AUDIO
    TITLE "8:cjc139_3372"
    INDEX 01 02:41:71
  TRACK 61 AUDIO
    TITLE "0:"
    INDEX 01 02:45:26
  TRACK 62 AUDIO
    TITLE "7:cjc139_3373"
    INDEX 01 02:48:13
  TRACK 63 AUDIO
    TITLE "0:"
    INDEX 01 02:52:48
  TRACK 64 AUDIO
    TITLE "8:cjc139_3374"
    INDEX 01 02:55:32
  TRACK 65 AUDIO
    TITLE "0:"
    INDEX 01 02:58:50
  TRACK 66 AUDIO
    TITLE "7:cjc139_3375"
    INDEX 01 03:01:35
  TRACK 67 AUDIO
    TITLE "0:"
    INDEX 01 03:05:54
  TRACK 68 AUDIO
    TITLE "8:cjc139_3376"
    INDEX 01 03:08:39
  TRACK 69 AUDIO
    TITLE "0:"
    INDEX 01 03:11:71
  TRACK 70 AUDIO
    TITLE "7:cjc139_3377"
    INDEX 01 03:14:55
  TRACK 71 AUDIO
    TITLE "0:"
    INDEX 01 03:19:68
  TRACK 72 AUDIO
    TITLE "8:cjc139_3378"
    INDEX 01 03:22:55
  TRACK 73 AUDIO
    TITLE "0:"
    INDEX 01 03:26:09
  TRACK 74 AUDIO
    TITLE "7:cjc139_3379"
    INDEX 01 03:28:71
  TRACK 75 AUDIO
    TITLE "0:"
    INDEX 01 03:32:67
  TRACK 76 AUDIO
    TITLE "8:cjc139_3380"
    INDEX 01 03:35:50
  TRACK 77 AUDIO
    TITLE "0:"
    INDEX 01 03:38:50
  TRACK 78 AUDIO
    TITLE "7:cjc139_3381"
    INDEX 01 03:41:38
  TRACK 79 AUDIO
    TITLE "0:"
    INDEX 01 03:45:22
  TRACK 80 AUDIO
    TITLE "8:cjc139_3382"
    INDEX 01 03:48:05
  TRACK 81 AUDIO
    TITLE "0:"
    INDEX 01 03:51:35
  TRACK 82 AUDIO
    TITLE "7:cjc139_3383"
    INDEX 01 03:54:21
  TRACK 83 AUDIO
    TITLE "0:"
    INDEX 01 03:57:53
  TRACK 84 AUDIO
    TITLE "8:cjc139_3384"
    INDEX 01 04:00:42
  TRACK 85 AUDIO
    TITLE "0:"
    INDEX 01 04:03:54
  TRACK 86 AUDIO
    TITLE "7:cjc139_3385"
    INDEX 01 04:06:38
  TRACK 87 AUDIO
    TITLE "0:"
    INDEX 01 04:09:13
  TRACK 88 AUDIO
    TITLE "8:cjc139_3386"
    INDEX 01 04:11:73
  TRACK 89 AUDIO
    TITLE "0:"
    INDEX 01 04:14:46
  TRACK 90 AUDIO
    TITLE "7:cjc139_3387"
    INDEX 01 04:17:32
  TRACK 91 AUDIO
    TITLE "0:"
    INDEX 01 04:20:11
  TRACK 92 AUDIO
    TITLE "8:cjc139_3388"
    INDEX 01 04:22:71
  TRACK 93 AUDIO
    TITLE "0:"
    INDEX 01 04:26:19
  TRACK 94 AUDIO
    TITLE "7:cjc139_3389"
    INDEX 01 04:29:04
  TRACK 95 AUDIO
    TITLE "0:"
    INDEX 01 04:32:02
  TRACK 96 AUDIO
    TITLE "8:cjc139_3390"
    INDEX 01 04:34:60
  TRACK 97 AUDIO
    TITLE "0:"
    INDEX 01 04:37:58
  TRACK 98 AUDIO
    TITLE "7:cjc139_3391"
    INDEX 01 04:40:41
  TRACK 99 AUDIO
    TITLE "0:"
    INDEX 01 04:44:45
  TRACK 100 AUDIO
    TITLE "8:cjc139_3392"
    INDEX 01 04:47:31
  TRACK 101 AUDIO
    TITLE "0:"
    INDEX 01 04:51:02
  TRACK 102 AUDIO
    TITLE "7:cjc139_3393"
    INDEX 01 04:53:61
  TRACK 103 AUDIO
    TITLE "0:"
    INDEX 01 04:56:50
  TRACK 104 AUDIO
    TITLE "8:cjc139_3394"
    INDEX 01 04:59:35
  TRACK 105 AUDIO
    TITLE "0:"
    INDEX 01 05:02:02
  TRACK 106 AUDIO
    TITLE "7:cjc139_3395"
    INDEX 01 05:04:59
  TRACK 107 AUDIO
    TITLE "0:"
    INDEX 01 05:08:28
  TRACK 108 AUDIO
    TITLE "8:cjc139_3396"
    INDEX 01 05:11:12
  TRACK 109 AUDIO
    TITLE "0:"
    INDEX 01 05:14:26
  TRACK 110 AUDIO
    TITLE "7:cjc139_3397"
    INDEX 01 05:17:11
  TRACK 111 AUDIO
    TITLE "0:"
    INDEX 01 05:20:66
  TRACK 112 AUDIO
    TITLE "8:cjc139_3398"
    INDEX 01 05:23:51
  TRACK 113 AUDIO
    TITLE "0:"
    INDEX 01 05:27:13
  TRACK 114 AUDIO
    TITLE "7:cjc139_3399"
    INDEX 01 05:29:73
  TRACK 115 AUDIO
    TITLE "0:"
    INDEX 01 05:33:61
  TRACK 116 AUDIO
    TITLE "8:cjc139_3400"
    INDEX 01 05:36:49
  TRACK 117 AUDIO
    TITLE "0:"
    INDEX 01 05:39:67
  TRACK 118 AUDIO
    TITLE "7:cjc139_3401"
    INDEX 01 05:42:52
  TRACK 119 AUDIO
    TITLE "0:"
    INDEX 01 05:45:13
  TRACK 120 AUDIO
    TITLE "8:cjc139_3402"
    INDEX 01 05:47:71
  TRACK 121 AUDIO
    TITLE "0:"
    INDEX 01 05:50:20
  TRACK 122 AUDIO
    TITLE "7:cjc139_3403"
    INDEX 01 05:53:07
  TRACK 123 AUDIO
    TITLE "0:"
    INDEX 01 05:55:19
  TRACK 124 AUDIO
    TITLE "8:cjc139_3404"
    INDEX 01 05:58:04
  TRACK 125 AUDIO
    TITLE "0:"
    INDEX 01 05:59:72
  TRACK 126 AUDIO
    TITLE "7:cjc139_3405"
    INDEX 01 06:02:59
  TRACK 127 AUDIO
    TITLE "0:"
    INDEX 01 06:05:67
  TRACK 128 AUDIO
    TITLE "8:cjc139_3406"
    INDEX 01 06:08:53
  TRACK 129 AUDIO
    TITLE "0:"
    INDEX 01 06:11:67
  TRACK 130 AUDIO
    TITLE "7:cjc139_3407"
    INDEX 01 06:14:54
  TRACK 131 AUDIO
    TITLE "0:"
    INDEX 01 06:17:50
  TRACK 132 AUDIO
    TITLE "8:cjc139_3408"
    INDEX 01 06:20:35
  TRACK 133 AUDIO
    TITLE "0:"
    INDEX 01 06:23:35
  TRACK 134 AUDIO
    TITLE "7:cjc139_3409"
    INDEX 01 06:26:20
  TRACK 135 AUDIO
    TITLE "0:"
    INDEX 01 06:28:60
  TRACK 136 AUDIO
    TITLE "8:cjc139_3410"
    INDEX 01 06:31:47
  TRACK 137 AUDIO
    TITLE "0:"
    INDEX 01 06:33:49
  TRACK 138 AUDIO
    TITLE "7:cjc139_3411"
    INDEX 01 06:36:32
  TRACK 139 AUDIO
    TITLE "0:"
    INDEX 01 06:39:58
  TRACK 140 AUDIO
    TITLE "8:cjc139_3412"
    INDEX 01 06:42:44
  TRACK 141 AUDIO
    TITLE "0:"
    INDEX 01 06:45:53
  TRACK 142 AUDIO
    TITLE "7:cjc139_3413"
    INDEX 01 06:48:35
  TRACK 143 AUDIO
    TITLE "0:"
    INDEX 01 06:50:56
  TRACK 144 AUDIO
    TITLE "8:cjc139_3414"
    INDEX 01 06:53:38
  TRACK 145 AUDIO
    TITLE "0:"
    INDEX 01 06:56:41
  TRACK 146 AUDIO
    TITLE "7:cjc139_3415"
    INDEX 01 06:59:25
  TRACK 147 AUDIO
    TITLE "0:"
    INDEX 01 07:02:31
  TRACK 148 AUDIO
    TITLE "8:cjc139_3416"
    INDEX 01 07:05:51
  TRACK 149 AUDIO
    TITLE "0:"
    INDEX 01 07:08:42
  TRACK 150 AUDIO
    TITLE "7:cjc139_3417"
    INDEX 01 07:11:28
  TRACK 151 AUDIO
    TITLE "0:"
    INDEX 01 07:14:35
  TRACK 152 AUDIO
    TITLE "8:cjc139_3418"
    INDEX 01 07:17:19
  TRACK 153 AUDIO
    TITLE "0:"
    INDEX 01 07:20:37
  TRACK 154 AUDIO
    TITLE "7:cjc139_3419"
    INDEX 01 07:23:24
  TRACK 155 AUDIO
    TITLE "0:"
    INDEX 01 07:25:25
  TRACK 156 AUDIO
    TITLE "8:cjc139_3420"
    INDEX 01 07:28:07
  TRACK 157 AUDIO
    TITLE "0:"
    INDEX 01 07:30:43
  TRACK 158 AUDIO
    TITLE "7:cjc139_3421"
    INDEX 01 07:33:30
  TRACK 159 AUDIO
    TITLE "0:"
    INDEX 01 07:36:73
  TRACK 160 AUDIO
    TITLE "8:cjc139_3422"
    INDEX 01 07:39:58
  TRACK 161 AUDIO
    TITLE "0:"
    INDEX 01 07:42:25
  TRACK 162 AUDIO
    TITLE "7:cjc139_3423"
    INDEX 01 07:45:10
  TRACK 163 AUDIO
    TITLE "0:"
    INDEX 01 07:48:32
  TRACK 164 AUDIO
    TITLE "8:cjc139_3424"
    INDEX 01 07:51:14
  TRACK 165 AUDIO
    TITLE "0:"
    INDEX 01 07:55:12
  TRACK 166 AUDIO
    TITLE "7:cjc139_3425"
    INDEX 01 07:57:74
  TRACK 167 AUDIO
    TITLE "0:"
    INDEX 01 08:00:70
  TRACK 168 AUDIO
    TITLE "8:cjc139_3426"
    INDEX 01 08:03:59
  TRACK 169 AUDIO
    TITLE "0:"
    INDEX 01 08:06:65
  TRACK 170 AUDIO
    TITLE "7:cjc139_3427"
    INDEX 01 08:09:53
  TRACK 171 AUDIO
    TITLE "0:"
    INDEX 01 08:12:20
  TRACK 172 AUDIO
    TITLE "8:cjc139_3428"
    INDEX 01 08:15:05
  TRACK 173 AUDIO
    TITLE "0:"
    INDEX 01 08:17:47
  TRACK 174 AUDIO
    TITLE "7:cjc139_3429"
    INDEX 01 08:20:32
  TRACK 175 AUDIO
    TITLE "0:"
    INDEX 01 08:24:65
  TRACK 176 AUDIO
    TITLE "8:cjc139_3430"
    INDEX 01 08:27:49
  TRACK 177 AUDIO
    TITLE "0:"
    INDEX 01 08:31:47
  TRACK 178 AUDIO
    TITLE "7:cjc139_3431"
    INDEX 01 08:34:32
  TRACK 179 AUDIO
    TITLE "0:"
    INDEX 01 08:37:20
  TRACK 180 AUDIO
    TITLE "8:cjc139_3432"
    INDEX 01 08:40:05
  TRACK 181 AUDIO
    TITLE "0:"
    INDEX 01 08:43:40
  TRACK 182 AUDIO
    TITLE "7:cjc139_3433"
    INDEX 01 08:46:25
  TRACK 183 AUDIO
    TITLE "0:"
    INDEX 01 08:49:41
  TRACK 184 AUDIO
    TITLE "8:cjc139_3434"
    INDEX 01 08:52:28
  TRACK 185 AUDIO
    TITLE "0:"
    INDEX 01 08:55:67
  TRACK 186 AUDIO
    TITLE "7:cjc139_3435"
    INDEX 01 08:58:56
  TRACK 187 AUDIO
    TITLE "0:"
    INDEX 01 09:03:67
  TRACK 188 AUDIO
    TITLE "8:cjc139_3436"
    INDEX 01 09:06:53
  TRACK 189 AUDIO
    TITLE "0:"
    INDEX 01 09:10:51
  TRACK 190 AUDIO
    TITLE "7:cjc139_3437"
    INDEX 01 09:13:38
  TRACK 191 AUDIO
    TITLE "0:"
    INDEX 01 09:15:60
  TRACK 192 AUDIO
    TITLE "8:cjc139_3438"
    INDEX 01 09:18:47
  TRACK 193 AUDIO
    TITLE "0:"
    INDEX 01 09:21:02
  TRACK 194 AUDIO
    TITLE "7:cjc139_3439"
    INDEX 01 09:23:62
  TRACK 195 AUDIO
    TITLE "0:"
    INDEX 01 09:26:34
  TRACK 196 AUDIO
    TITLE "8:cjc139_3440"
    INDEX 01 09:29:17
  TRACK 197 AUDIO
    TITLE "0:"
    INDEX 01 09:31:63
  TRACK 198 AUDIO
    TITLE "7:cjc139_3441"
    INDEX 01 09:34:50
  TRACK 199 AUDIO
    TITLE "0:"
    INDEX 01 09:37:58
  TRACK 200 AUDIO
    TITLE "8:cjc139_3442"
    INDEX 01 09:40:44
  TRACK 201 AUDIO
    TITLE "0:"
    INDEX 01 09:44:46
  TRACK 202 AUDIO
    TITLE "7:cjc139_3443"
    INDEX 01 09:47:35
  TRACK 203 AUDIO
    TITLE "0:"
    INDEX 01 09:50:43
  TRACK 204 AUDIO
    TITLE "8:cjc139_3444"
    INDEX 01 09:53:27
  TRACK 205 AUDIO
    TITLE "0:"
    INDEX 01 09:56:49
  TRACK 206 AUDIO
    TITLE "7:cjc139_3445"
    INDEX 01 09:59:36
  TRACK 207 AUDIO
    TITLE "0:"
    INDEX 01 10:03:24
  TRACK 208 AUDIO
    TITLE "8:cjc139_3446"
    INDEX 01 10:06:08
  TRACK 209 AUDIO
    TITLE "0:"
    INDEX 01 10:09:62
  TRACK 210 AUDIO
    TITLE "7:cjc139_3447"
    INDEX 01 10:12:46
  TRACK 211 AUDIO
    TITLE "0:"
    INDEX 01 10:15:19
  TRACK 212 AUDIO
    TITLE "8:cjc139_3448"
    INDEX 01 10:18:04
  TRACK 213 AUDIO
    TITLE "0:"
    INDEX 01 10:20:26
  TRACK 214 AUDIO
    TITLE "7:cjc139_3449"
    INDEX 01 10:23:13
  TRACK 215 AUDIO
    TITLE "0:"
    INDEX 01 10:27:32
  TRACK 216 AUDIO
    TITLE "8:cjc139_3450"
    INDEX 01 10:30:19
  TRACK 217 AUDIO
    TITLE "0:"
    INDEX 01 10:34:11
